<?xml version="1.0" encoding="UTF-8" standalone="no"?>
<!DOCTYPE svg PUBLIC "-//W3C//DTD SVG 1.1//EN"
 "http://www.w3.org/Graphics/SVG/1.1/DTD/svg11.dtd">
<!-- Generated by graphviz version 12.2.1 (20241206.2353)
 -->
<!-- Title: G Pages: 1 -->
<svg width="781pt" height="98pt"
 viewBox="0.00 0.00 780.50 98.00" xmlns="http://www.w3.org/2000/svg" xmlns:xlink="http://www.w3.org/1999/xlink">
<g id="graph0" class="graph" transform="scale(1 1) rotate(0) translate(4 94)">
<title>G</title>
<polygon fill="white" stroke="none" points="-4,4 -4,-94 776.5,-94 776.5,4 -4,4"/>
<!-- data.aws_key_pair.gustavo_key_pair -->
<g id="node1" class="node">
<title>data.aws_key_pair.gustavo_key_pair</title>
<polygon fill="none" stroke="black" points="501.5,-90 262.75,-90 262.75,-54 501.5,-54 501.5,-90"/>
<text text-anchor="middle" x="382.12" y="-67.33" font-family="sans-serif" font-size="14.00">data.aws_key_pair.gustavo_key_pair</text>
</g>
<!-- aws_instance.ec2_instancia_publica -->
<g id="node2" class="node">
<title>aws_instance.ec2_instancia_publica</title>
<polygon fill="none" stroke="black" points="772.5,-90 537.5,-90 537.5,-54 772.5,-54 772.5,-90"/>
<text text-anchor="middle" x="655" y="-67.33" font-family="sans-serif" font-size="14.00">aws_instance.ec2_instancia_publica</text>
</g>
<!-- aws_instance.ec2_instancia_publica&#45;&gt;data.aws_key_pair.gustavo_key_pair -->
<g id="edge1" class="edge">
<title>aws_instance.ec2_instancia_publica&#45;&gt;data.aws_key_pair.gustavo_key_pair</title>
<path fill="none" stroke="black" d="M537.16,-72C529.18,-72 521.11,-72 513.07,-72"/>
<polygon fill="black" stroke="black" points="513.24,-68.5 503.24,-72 513.24,-75.5 513.24,-68.5"/>
</g>
<!-- aws_subnet.subred_publica -->
<g id="node4" class="node">
<title>aws_subnet.subred_publica</title>
<polygon fill="none" stroke="black" points="474.12,-36 290.12,-36 290.12,0 474.12,0 474.12,-36"/>
<text text-anchor="middle" x="382.12" y="-13.32" font-family="sans-serif" font-size="14.00">aws_subnet.subred_publica</text>
</g>
<!-- aws_instance.ec2_instancia_publica&#45;&gt;aws_subnet.subred_publica -->
<g id="edge2" class="edge">
<title>aws_instance.ec2_instancia_publica&#45;&gt;aws_subnet.subred_publica</title>
<path fill="none" stroke="black" d="M561.54,-53.57C536.97,-48.67 510.3,-43.35 485.25,-38.36"/>
<polygon fill="black" stroke="black" points="486.23,-34.99 475.74,-36.46 484.86,-41.85 486.23,-34.99"/>
</g>
<!-- aws_subnet.subred_privada -->
<g id="node3" class="node">
<title>aws_subnet.subred_privada</title>
<polygon fill="none" stroke="black" points="748.12,-36 561.88,-36 561.88,0 748.12,0 748.12,-36"/>
<text text-anchor="middle" x="655" y="-13.32" font-family="sans-serif" font-size="14.00">aws_subnet.subred_privada</text>
</g>
<!-- aws_subnet.subred_privada&#45;&gt;aws_subnet.subred_publica -->
<g id="edge3" class="edge">
<title>aws_subnet.subred_privada&#45;&gt;aws_subnet.subred_publica</title>
<path fill="none" stroke="black" d="M561.54,-18C537.08,-18 510.54,-18 485.59,-18"/>
<polygon fill="black" stroke="black" points="485.77,-14.5 475.77,-18 485.77,-21.5 485.77,-14.5"/>
</g>
<!-- aws_vpc.virginia_gustavo_vpc_tpp -->
<g id="node5" class="node">
<title>aws_vpc.virginia_gustavo_vpc_tpp</title>
<polygon fill="none" stroke="black" points="226.75,-36 0,-36 0,0 226.75,0 226.75,-36"/>
<text text-anchor="middle" x="113.38" y="-13.32" font-family="sans-serif" font-size="14.00">aws_vpc.virginia_gustavo_vpc_tpp</text>
</g>
<!-- aws_subnet.subred_publica&#45;&gt;aws_vpc.virginia_gustavo_vpc_tpp -->
<g id="edge4" class="edge">
<title>aws_subnet.subred_publica&#45;&gt;aws_vpc.virginia_gustavo_vpc_tpp</title>
<path fill="none" stroke="black" d="M289.7,-18C273.12,-18 255.58,-18 238.25,-18"/>
<polygon fill="black" stroke="black" points="238.42,-14.5 228.42,-18 238.42,-21.5 238.42,-14.5"/>
</g>
</g>
</svg>
